<?xml version="1.0" encoding="UTF-8" standalone="no"?><svg xmlns="http://www.w3.org/2000/svg" xmlns:xlink="http://www.w3.org/1999/xlink" fill="#000000" height="267.5" preserveAspectRatio="xMidYMid meet" version="1" viewBox="26.7 25.9 266.6 267.5" width="266.6" zoomAndPan="magnify"><defs><linearGradient gradientTransform="matrix(2.81417 0 0 2.81568 533.421 -406.537)" gradientUnits="userSpaceOnUse" id="b" x1="-177.211" x2="-87.309" xlink:actuate="onLoad" xlink:href="#a" xlink:show="other" xlink:type="simple" y1="155.243" y2="248.041"/><linearGradient id="a" xlink:actuate="onLoad" xlink:show="other" xlink:type="simple"><stop offset="0" stop-color="#ff3131"/><stop offset="1" stop-color="#5ce1e6"/></linearGradient></defs><path clip-rule="evenodd" d="M 157.84983,27.344334 C 84.743902,28.778542 26.689231,89.015714 27.405947,162.16091 28.839394,235.30604 89.044262,293.39192 162.15017,292.67478 235.2561,291.24057 293.31077,231.00337 292.59406,157.85821 291.16059,84.713091 230.95573,25.910109 157.84983,27.344334 Z m -36.55297,22.230383 c -7.88397,10.756638 -15.05121,24.381705 -20.06829,40.15811 H 66.825815 C 80.443593,71.805084 99.078393,57.462905 121.29686,49.574717 Z M 56.791629,105.50923 h 39.419886 c -3.583609,14.34219 -5.017074,30.1186 -5.733788,46.61212 H 43.890604 c 0.716749,-16.49352 5.733807,-32.26993 12.901025,-46.61212 z m -12.901025,62.38854 h 46.587123 c 0.716714,16.49352 2.150179,32.2699 5.733788,46.61207 H 56.791629 C 49.624411,200.16767 44.607353,184.39129 43.890604,167.89777 Z m 22.935211,61.67136 h 34.402755 c 5.01708,15.77644 12.18432,30.1186 20.06829,40.15814 C 99.078393,261.83911 80.443593,248.214 66.825815,229.56913 Z m 86.006925,45.89503 c -17.2014,-5.73689 -29.3857,-28.6844 -35.11947,-45.89503 h 35.11947 z m 0,-60.95432 h -40.13656 c -3.58363,-14.34217 -5.73382,-30.11855 -6.45053,-46.61207 h 46.58709 z m 0,-62.38849 h -46.58709 c 0.71671,-16.49352 2.8669,-32.26993 6.45053,-46.61212 h 40.13656 z m 0,-62.388523 h -35.11947 c 6.4505,-17.210595 17.91807,-40.15811 35.11947,-45.894993 z m 123.99337,62.388523 h -46.58712 c -0.71672,-16.49352 -2.15015,-32.26993 -5.73377,-46.61212 h 39.41983 c 7.16726,14.34219 12.18433,30.1186 12.90106,46.61212 z m -22.9352,-62.388523 h -34.40277 c -5.01708,-15.776405 -12.18432,-30.118585 -20.06828,-40.15811 22.21845,7.888188 40.85331,22.230367 54.47105,40.15811 z M 167.88397,44.554946 c 17.20139,5.736865 29.38572,28.684381 35.11953,45.894975 h -35.11953 z m 0,60.954284 h 40.13659 c 3.58361,14.34219 5.73379,30.1186 6.4505,46.61212 h -46.58709 z m 0,62.38854 h 46.58709 c -0.71671,16.49352 -2.86689,32.2699 -6.4505,46.61207 h -40.13659 z m 0,107.56639 v -45.89503 h 35.11953 c -5.73381,17.21063 -17.2014,40.15814 -35.11953,45.89503 z m 31.53589,-5.73689 c 7.88396,-10.75661 15.0512,-24.3817 20.06828,-40.15814 h 34.40277 c -13.61774,18.64487 -32.2526,32.26998 -54.47105,40.15814 z m 64.50519,-55.21743 h -39.41983 c 3.58362,-14.34217 5.01705,-30.11855 5.73377,-46.61207 h 46.58712 c -0.71673,16.49352 -5.7338,32.2699 -12.90106,46.61207 z" fill="url(#b)" fill-rule="evenodd" stroke-width="7.169"/></svg>